<svg xmlns="http://www.w3.org/2000/svg" viewBox="0 0 20.91 29.29"><defs><style>.cls-1{fill:#969ea5;}.cls-2{fill:none;stroke:#969ea5;stroke-miterlimit:10;}</style></defs><title>Padlock Icon</title><g id="Layer_2" data-name="Layer 2"><g id="Layer_1-2" data-name="Layer 1"><path class="cls-1" d="M10.45,8.38A10.46,10.46,0,1,0,20.91,18.84,10.45,10.45,0,0,0,10.45,8.38Zm1.1,12.19v4.88H8.82V20.57a3.74,3.74,0,0,1-2.66-3.49,3.89,3.89,0,0,1,4-3.73,3.89,3.89,0,0,1,4,3.73A3.75,3.75,0,0,1,11.55,20.57Z"/><path class="cls-2" d="M16,4.43a34.68,34.68,0,0,1,.78,7.35h-13A26.08,26.08,0,0,1,4.78,4,5.06,5.06,0,0,1,9.6.5h1.46A5.05,5.05,0,0,1,16,4.43Z"/></g></g></svg>