<svg xmlns="http://www.w3.org/2000/svg" viewBox="0 0 374.93 43.97"><defs><style>.cls-1{fill:#01a462;}.cls-2{font-size:16px;font-family:MyriadPro-Regular, Myriad Pro;}.cls-2,.cls-3,.cls-6{fill:#fff;}.cls-4{fill:none;stroke:#fff;stroke-miterlimit:10;}.cls-4,.cls-6{opacity:0.5;}.cls-5{fill:#f2f2f2;}</style></defs><title>Small iPhone App Bar</title><g id="Layer_2" data-name="Layer 2"><g id="Layer_1-2" data-name="Layer 1"><rect class="cls-1" width="374.93" height="43.97"/><text class="cls-2" transform="translate(28.96 28.86)">12:01</text><path class="cls-3" d="M323.45,17.74C319.64,17.74,316,21,316,21l1.36,1.65a9.55,9.55,0,0,1,6.19-2.44,11.82,11.82,0,0,1,5.92,2.35L331,21.11S327.4,17.74,323.45,17.74Z"/><path class="cls-3" d="M328.37,23.81s-2.46-2.3-4.93-2.3-5,2.38-5,2.38l1.66,1.77a4.64,4.64,0,0,1,3.38-1.39,5.89,5.89,0,0,1,3.24,1.37Z"/><path class="cls-3" d="M323.49,25.62a4.77,4.77,0,0,0-2.27,1.07L323.4,29l2.19-2.39A3.91,3.91,0,0,0,323.49,25.62Z"/><rect class="cls-4" x="336.4" y="17.88" width="21.1" height="10.36" rx="2.2"/><rect class="cls-5" x="338.02" y="19.37" width="14.69" height="7.38" rx="1.13"/><path class="cls-6" d="M358.92,25V21h.32s1,1.26,1,1.91a3.6,3.6,0,0,1-1,2.09"/><rect class="cls-3" x="293.71" y="25.18" width="3" height="4" rx="1.5"/><rect class="cls-3" x="298.38" y="23.18" width="3" height="6" rx="1.5"/><rect class="cls-3" x="303.04" y="20.84" width="3" height="8.33" rx="1.5"/><rect class="cls-6" x="307.71" y="17.74" width="3" height="11.44" rx="1.5"/></g></g></svg>