<svg xmlns="http://www.w3.org/2000/svg" viewBox="0 0 1124.89 132.02"><defs><style>.cls-1{fill:#01a462;}.cls-2{font-size:48px;font-family:MyriadPro-Regular, Myriad Pro;}.cls-2,.cls-3,.cls-5{fill:#fff;}.cls-4{fill:none;stroke:#fff;stroke-miterlimit:10;stroke-width:3px;}.cls-4,.cls-5{opacity:0.5;}</style></defs><title>iPhone App Bar</title><g id="Layer_2" data-name="Layer 2"><g id="Layer_1-2" data-name="Layer 1"><rect class="cls-1" width="1124.89" height="132.02"/><text class="cls-2" transform="translate(83.88 85.12)">12:01</text><path class="cls-3" d="M970.24,51.79c-11.4,0-22.43,9.75-22.43,9.75l4.09,4.94c3.53-3.45,11.47-7.58,18.56-7.32,3.12.08,11.91,2.21,17.77,7l4.61-4.32S982.09,51.79,970.24,51.79Z"/><path class="cls-3" d="M985,70s-7.37-6.91-14.79-6.91c-7.14,0-15,7.14-15,7.14l5,5.3a13.77,13.77,0,0,1,10.11-4.16,17.63,17.63,0,0,1,9.72,4.12Z"/><path class="cls-3" d="M970.36,75.43c-2.86-.05-6.81,3.21-6.81,3.21l6.56,7,6.56-7.17S973.47,75.48,970.36,75.43Z"/><rect class="cls-4" x="1009.74" y="53.56" width="62.65" height="31.21" rx="8.65"/><rect class="cls-3" x="1013.81" y="58.03" width="44.07" height="22.13" rx="3.92"/><path class="cls-5" d="M1076.83,75.2v-12h1s3,3.8,3,5.74c0,3.22-3,6.27-3,6.27"/><rect class="cls-3" x="881.04" y="74.09" width="9" height="12" rx="3"/><rect class="cls-3" x="895.04" y="68.09" width="9" height="18" rx="3"/><rect class="cls-3" x="909.04" y="61.09" width="9" height="25" rx="3"/><rect class="cls-5" x="923.04" y="54.09" width="9" height="32" rx="3"/></g></g></svg>