<svg xmlns="http://www.w3.org/2000/svg" viewBox="0 0 71.32 71.6"><defs><style>.cls-1,.cls-2{fill:#595958;}.cls-2{stroke:#000;stroke-miterlimit:10;stroke-width:0.1px;}</style></defs><title>Asset 2</title><g id="Layer_2" data-name="Layer 2"><g id="Layer_1-2" data-name="Layer 1"><path class="cls-1" d="M62.5,12.6a37.48,37.48,0,0,0-21-12c-10.83-2-22,1.18-27,6l-1,1c-3.32,3.39-6.66,6.78-9,11,0,0-2.29,4.17-4,13A28.8,28.8,0,0,0,0,36.1v5a22.63,22.63,0,0,0,1,6,24.21,24.21,0,0,0,2.5,5.5,41.58,41.58,0,0,0,14,14,35.23,35.23,0,0,0,18,5,35.72,35.72,0,0,0,22-8,35.83,35.83,0,0,0,13-20C74.32,26.81,63.66,14,62.5,12.6ZM53,27.1c-.17,1-.18.66-1,4-.57,2.33-.62,2.73-1,4-.55,1.86-.63,1.6-1,3a31.89,31.89,0,0,1-1,4,12.8,12.8,0,0,1-1,2,12.37,12.37,0,0,1-4,4,12.76,12.76,0,0,1-2,1,26,26,0,0,1-3,1c-2,.63-1.71.62-3,1-1.81.54-2.22.5-4,1-1.54.44-2.52.83-3,1-1.78.63-6.8,2.15-9,0a4.21,4.21,0,0,1-1-2c-.92-2.88-.5-5.45,0-8l1-4c.67-2.66,1-4,1-4a17.87,17.87,0,0,1,1-4c.36-.78.52-.89,1-2a7.11,7.11,0,0,1,1-2c.14-.16.12-.11,1-1s.84-.86,1-1a7.35,7.35,0,0,1,2-1c1.11-.48,1.07-.58,2-1a22,22,0,0,1,3-1c2.15-.6,2.29-.49,4-1,1.45-.42,1.49-.53,3-1a33.62,33.62,0,0,1,4-1c2.86-.49,4.36-.74,6,0a6.15,6.15,0,0,1,3,3C53.6,23.52,53.39,24.8,53,27.1Z"/><path class="cls-2" d="M41,34.1a6,6,0,0,0-1-2,6.19,6.19,0,0,0-1-1,5.7,5.7,0,0,0-5-1,6,6,0,0,0-2,1,8.87,8.87,0,0,0-2,4,6.23,6.23,0,0,0,0,3,5.83,5.83,0,0,0,1,2,5.39,5.39,0,0,0,1,1,5.09,5.09,0,0,0,4,1,5.16,5.16,0,0,0,2-1,7.14,7.14,0,0,0,2-2A6.42,6.42,0,0,0,41,34.1Z"/></g></g></svg>