<svg xmlns="http://www.w3.org/2000/svg" viewBox="0 0 45.03 33.89"><defs><style>.cls-1{fill:#fff;}</style></defs><title>WiFi Icon_1</title><g id="Layer_2" data-name="Layer 2"><g id="Layer_1-2" data-name="Layer 1"><path class="cls-1" d="M22.43,0C11,0,0,9.75,0,9.75l4.09,4.94c3.53-3.45,11.47-7.58,18.56-7.31a35.16,35.16,0,0,1,17.77,7.05L45,10.11S34.28,0,22.43,0Z"/><path class="cls-1" d="M37.21,18.21S29.84,11.3,22.42,11.3c-7.14,0-15,7.14-15,7.14l5,5.3a13.73,13.73,0,0,1,10.11-4.15,17.58,17.58,0,0,1,9.73,4.11Z"/><path class="cls-1" d="M22.55,23.64c-2.86,0-6.81,3.21-6.81,3.21l6.56,7,6.56-7.17S25.66,23.7,22.55,23.64Z"/></g></g></svg>