<svg xmlns="http://www.w3.org/2000/svg" viewBox="0 0 36.4 35.71"><defs><style>.cls-1{fill:#fff;stroke:#d8d8d8;stroke-miterlimit:10;stroke-width:0.1px;}</style></defs><title>Asset 6</title><g id="Layer_2" data-name="Layer 2"><g id="Layer_1-2" data-name="Layer 1"><path class="cls-1" d="M21.64,14.76v-12A3,3,0,0,0,20.42.71,4,4,0,0,0,15.9.78a3.05,3.05,0,0,0-1.14,2v12h-12A3.15,3.15,0,0,0,.71,15.83a3.14,3.14,0,0,0,.07,3.94,3.26,3.26,0,0,0,2,1h12V32.9A3,3,0,0,0,16,35a4,4,0,0,0,4.51-.07,3,3,0,0,0,1.14-2.05V20.77h12A3.23,3.23,0,0,0,35.7,19.7a3,3,0,0,0-2.1-4.94Z"/></g></g></svg>