<svg xmlns="http://www.w3.org/2000/svg" viewBox="0 0 51.37 63.39"><defs><style>.cls-1{fill:#d8d8d8;}</style></defs><title>Asset 9</title><g id="Layer_2" data-name="Layer 2"><g id="Layer_1-2" data-name="Layer 1"><path class="cls-1" d="M33.2,2.93c0,6.18-.08,19,0,19.53a4.19,4.19,0,0,0,1,2,5.72,5.72,0,0,0,1,.94h15a2.36,2.36,0,0,1,1,1.06,2.9,2.9,0,0,1,0,2,5.52,5.52,0,0,1-.93,1.94l-.07.09c-.39.49-6.74,7.89-28.17,32.76a1.76,1.76,0,0,1-.59.16,2.81,2.81,0,0,1-2.19-1,4,4,0,0,1-1.07-1.94v0c0-6.19.08-19,0-19.54a4.1,4.1,0,0,0-1-2,5.72,5.72,0,0,0-1-.94h-15a2.34,2.34,0,0,1-1-1.07A2.9,2.9,0,0,1,.18,35,5.54,5.54,0,0,1,1.11,33l.07-.09c.39-.49,6.74-7.89,28.17-32.76A2,2,0,0,1,29.94,0a2.87,2.87,0,0,1,2.19,1A4,4,0,0,1,33.2,3"/></g></g></svg>