<svg xmlns="http://www.w3.org/2000/svg" viewBox="0 0 20.04 20.01"><defs><style>.cls-1{fill:#646464;opacity:0.5;}</style></defs><title>Favorites Icon</title><g id="Layer_2" data-name="Layer 2"><g id="Layer_1-2" data-name="Layer 1"><path class="cls-1" d="M20,1a1,1,0,0,0-1-1H1A1,1,0,0,0,0,1V19a1,1,0,0,0,1,1L11.41,20a.94.94,0,0,0,.95-1h0a.94.94,0,0,0-.95-.95L2,18V4.93H18L18,9.3a1,1,0,0,0,1,1,1,1,0,0,0,1-1Z"/><path class="cls-1" d="M16,9.63h0a1,1,0,0,0-1-1H4.78a1.05,1.05,0,0,0-1.11,1h0a1.05,1.05,0,0,0,1.11,1H14.91A1,1,0,0,0,16,9.63Z"/><path class="cls-1" d="M4.27,13.69c-.33,0-.6.44-.6,1h0c0,.54.27,1,.6,1H9.76c.31,0,.56-.45.56-1h0c0-.55-.25-1-.56-1Z"/><path class="cls-1" d="M17.94,12.72h-.13a1.7,1.7,0,0,0-1.33.63l-.58.71-.58-.71A1.67,1.67,0,0,0,14,12.72h-.13a1.73,1.73,0,0,0-1.2.49,2.52,2.52,0,0,0-.51,1.54,2.76,2.76,0,0,0,.6,1.43L15.9,20l3.16-3.83a2.83,2.83,0,0,0,.59-1.43,2.58,2.58,0,0,0-.5-1.54A1.75,1.75,0,0,0,17.94,12.72Z"/></g></g></svg>