<svg xmlns="http://www.w3.org/2000/svg" viewBox="0 0 20.88 23.63"><defs><style>.cls-1{fill:#fff;stroke:#000;stroke-miterlimit:10;}</style></defs><title>Hand Pointer_1</title><g id="Layer_2" data-name="Layer 2"><g id="On-Off_Toggler_0_00_01_15_Image" data-name="On-Off Toggler (0;00;01;15) Image"><path class="cls-1" d="M7.76,23,2.18,14.43c-.73-.95-2-2.83-1.59-3.86.31-.7,1.3-.8,2.23-.76,1.09,0,1.41,1,3,2.6a.17.17,0,0,0,.29-.18C5,9.56,2.85,1.12,5.25.55,8.2-.14,8.76,6.25,9,8.12a.16.16,0,0,0,.3.07c.54-.89,1.72-3.11,3.59-.53a.51.51,0,0,0,.76.1c.79-.67,1.75-1.43,2.91.14.26.35.33.76.57.7A2.13,2.13,0,0,1,20,9.76a1.11,1.11,0,0,1,.14.54l.29,3.33A9.5,9.5,0,0,1,19.31,18a10,10,0,0,1-1,1.62c-.78.93-1.19,0-1.39,1.24V21c-.16,1-1.54,1.36-2.52,1.11-.2,0,1.27.07,1,0-1.8-.59-2.26.67-3.45,1A19.86,19.86,0,0,1,7.76,23Z"/><rect x="12.92" y="13.05" width="1.02" height="6.03"/><rect x="10.49" y="13.05" width="0.99" height="6.03"/><rect x="15.43" y="13.05" width="1" height="6.03"/></g></g></svg>