<svg xmlns="http://www.w3.org/2000/svg" viewBox="0 0 43.34 38.14"><defs><style>.cls-1{fill:none;stroke:#fff;stroke-miterlimit:10;stroke-width:3px;}</style></defs><title>Camera</title><g id="Layer_2" data-name="Layer 2"><g id="Layer_1-2" data-name="Layer 1"><path class="cls-1" d="M34.35,10C29,10.23,29,3.26,29,3.26S28.2,1.5,26.89,1.5H16.75a3.87,3.87,0,0,0-2.43,1.25s0,7-5.33,6.71A8,8,0,0,0,1.5,13.6V31.74a4.94,4.94,0,0,0,3.88,4.41s31.1,1.12,33.46,0a6.18,6.18,0,0,0,3-3.9V14.1A8,8,0,0,0,34.35,10ZM21.73,30.27A8.23,8.23,0,1,1,30,22,8.23,8.23,0,0,1,21.73,30.27Z"/></g></g></svg>