<svg xmlns="http://www.w3.org/2000/svg" viewBox="0 0 92 66"><defs><style>.cls-1{fill:#d8d8d8;}.cls-2{fill:none;stroke:#d8d8d8;stroke-miterlimit:10;}</style></defs><title>Asset 4</title><g id="Layer_2" data-name="Layer 2"><g id="Layer_1-2" data-name="Layer 1"><path class="cls-1" d="M85.5.5H6.5a6,6,0,0,0-6,6v45a6,6,0,0,0,6,6h79a6,6,0,0,0,6-6V6.5A6,6,0,0,0,85.5.5Zm-6,61h-68a2,2,0,0,0,0,4h68a2,2,0,0,0,0-4Z"/><path class="cls-2" d="M85.5.5H6.5a6,6,0,0,0-6,6v45a6,6,0,0,0,6,6h79a6,6,0,0,0,6-6V6.5A6,6,0,0,0,85.5.5Zm-6,61h-68a2,2,0,0,0,0,4h68a2,2,0,0,0,0-4Z"/></g></g></svg>