<svg xmlns="http://www.w3.org/2000/svg" viewBox="0 0 45.14 32.48"><defs><style>.cls-1{fill:#fff;}</style></defs><title>WiFi Icon</title><g id="Layer_2" data-name="Layer 2"><g id="Layer_1-2" data-name="Layer 1"><path class="cls-1" d="M22.48,0C11.06,0,0,9.35,0,9.35l4.1,4.73c3.54-3.31,11.5-7.26,18.61-7,3.13.07,11.94,2.12,17.81,6.76l4.62-4.14S34.37,0,22.48,0Z"/><path class="cls-1" d="M37.3,17.46s-7.39-6.63-14.83-6.63c-7.15,0-15,6.85-15,6.85l5,5.08a14.11,14.11,0,0,1,10.13-4,18,18,0,0,1,9.75,3.94Z"/><path class="cls-1" d="M22.61,22.66c-2.87,0-6.83,3.08-6.83,3.08l6.58,6.74,6.57-6.87S25.72,22.71,22.61,22.66Z"/></g></g></svg>